<svg width="24" height="24" viewBox="0 0 24 24" fill="none" xmlns="http://www.w3.org/2000/svg">
<g clip-path="url(#clip0_15_21)">
<path d="M3.91679 10.2948C3.84049 10.3726 3.74946 10.4343 3.64901 10.4765C3.54857 10.5186 3.44072 10.5404 3.33179 10.5404C3.22285 10.5404 3.11501 10.5186 3.01456 10.4765C2.91412 10.4343 2.82309 10.3726 2.74679 10.2948C2.59149 10.1368 2.50447 9.92414 2.50447 9.7026C2.50447 9.48106 2.59149 9.26839 2.74679 9.1104L9.98399 1.8C11.616 0.532802 13.2576 -0.0755981 14.892 0.0072019C16.9512 0.112802 18.5544 0.897602 19.9152 2.1852C21.3024 3.498 22.2 5.3712 22.2 7.6416C22.2 9.384 21.6936 10.9176 20.6244 12.2784L10.4208 22.7904C9.38879 23.6364 8.24159 24.0456 7.01279 23.9964C5.45279 23.9316 4.29239 23.4276 3.42959 22.5744C2.41919 21.5772 1.79999 20.352 1.79999 18.7044C1.79999 17.394 2.25239 16.1844 3.18599 15.0492L12.1668 5.88C12.8868 5.112 13.5912 4.656 14.3112 4.5456C14.7917 4.47033 15.2834 4.51351 15.7435 4.6714C16.2035 4.82929 16.6181 5.09711 16.9512 5.4516C17.5896 6.1272 17.8632 6.9696 17.7672 7.9284C17.7012 8.5824 17.4336 9.1848 16.9416 9.762L8.68559 18.2196C8.60979 18.2976 8.51921 18.3598 8.41914 18.4025C8.31906 18.4452 8.21149 18.4675 8.1027 18.4682C7.9939 18.4688 7.88607 18.4478 7.78547 18.4064C7.68488 18.365 7.59354 18.3039 7.51679 18.2268C7.36053 18.0698 7.27221 17.8576 7.27086 17.6361C7.26952 17.4145 7.35525 17.2013 7.50959 17.0424L15.726 8.628C15.966 8.346 16.092 8.0616 16.122 7.7592C16.17 7.2792 16.0548 6.9252 15.756 6.6096C15.605 6.44814 15.4164 6.32643 15.2071 6.25526C14.9978 6.18409 14.7741 6.16566 14.556 6.2016C14.2644 6.246 13.8564 6.5112 13.3536 7.0464L4.40999 16.1748C3.76559 16.9608 3.45359 17.7948 3.45359 18.7056C3.45359 19.8504 3.86759 20.67 4.58399 21.3768C5.15399 21.9408 5.92799 22.2768 7.07999 22.3248C7.89599 22.3572 8.65199 22.0872 9.30959 21.5544L19.386 11.1744C20.16 10.182 20.5464 9.0144 20.5464 7.6428C20.5464 5.8644 19.854 4.422 18.7848 3.4092C17.6928 2.3748 16.4448 1.7652 14.8092 1.6812C13.5996 1.6188 12.3312 2.0892 11.0688 3.0564L3.91679 10.2948Z" fill="white"/>
</g>
<defs>
<clipPath id="clip0_15_21">
<rect width="24" height="24" fill="white"/>
</clipPath>
</defs>
</svg>
