<svg width="156" height="59" viewBox="0 0 156 59" fill="none" xmlns="http://www.w3.org/2000/svg">
<g filter="url(#filter0_d_46_2)">
<mask id="path-1-inside-1_46_2" fill="white">
<path d="M15 49C12.2386 49 10 46.7614 10 44L10 25C10 22.2386 12.2386 20 15 20L69.6602 20L78 10L86.3398 20L141 20C143.761 20 146 22.2386 146 25L146 44C146 46.7614 143.761 49 141 49L15 49Z"/>
</mask>
<path d="M15 49C12.2386 49 10 46.7614 10 44L10 25C10 22.2386 12.2386 20 15 20L69.6602 20L78 10L86.3398 20L141 20C143.761 20 146 22.2386 146 25L146 44C146 46.7614 143.761 49 141 49L15 49Z" fill="white"/>
<path d="M10 44L9 44L10 44ZM10 25L11 25L10 25ZM15 20L15 19L15 20ZM69.6602 20L69.6602 21L70.1283 21L70.4281 20.6405L69.6602 20ZM78 10L78.768 9.35953L78 8.43868L77.232 9.35953L78 10ZM86.3398 20L85.5719 20.6405L85.8717 21L86.3398 21L86.3398 20ZM146 25L147 25L146 25ZM141 49L141 50L141 49ZM15 49L15 48C12.7909 48 11 46.2092 11 44L10 44L9 44C9 47.3137 11.6863 50 15 50L15 49ZM10 44L11 44L11 25L10 25L9 25L9 44L10 44ZM10 25L11 25C11 22.7909 12.7909 21 15 21L15 20L15 19C11.6863 19 9 21.6863 9 25L10 25ZM15 20L15 21L69.6602 21L69.6602 20L69.6602 19L15 19L15 20ZM69.6602 20L70.4281 20.6405L78.768 10.6405L78 10L77.232 9.35953L68.8922 19.3595L69.6602 20ZM78 10L77.232 10.6405L85.5719 20.6405L86.3398 20L87.1078 19.3595L78.768 9.35953L78 10ZM86.3398 20L86.3398 21L141 21L141 20L141 19L86.3398 19L86.3398 20ZM141 20L141 21C143.209 21 145 22.7909 145 25L146 25L147 25C147 21.6863 144.314 19 141 19L141 20ZM146 25L145 25L145 44L146 44L147 44L147 25L146 25ZM146 44L145 44C145 46.2091 143.209 48 141 48L141 49L141 50C144.314 50 147 47.3137 147 44L146 44ZM141 49L141 48L15 48L15 49L15 50L141 50L141 49Z" fill="#333333" mask="url(#path-1-inside-1_46_2)"/>
</g>
<defs>
<filter id="filter0_d_46_2" x="0" y="0" width="156" height="59" filterUnits="userSpaceOnUse" color-interpolation-filters="sRGB">
<feFlood flood-opacity="0" result="BackgroundImageFix"/>
<feColorMatrix in="SourceAlpha" type="matrix" values="0 0 0 0 0 0 0 0 0 0 0 0 0 0 0 0 0 0 127 0" result="hardAlpha"/>
<feOffset/>
<feGaussianBlur stdDeviation="5"/>
<feComposite in2="hardAlpha" operator="out"/>
<feColorMatrix type="matrix" values="0 0 0 0 0 0 0 0 0 0 0 0 0 0 0 0 0 0 0.3 0"/>
<feBlend mode="normal" in2="BackgroundImageFix" result="effect1_dropShadow_46_2"/>
<feBlend mode="normal" in="SourceGraphic" in2="effect1_dropShadow_46_2" result="shape"/>
</filter>
</defs>
</svg>
