<svg width="23" height="23" viewBox="0 0 23 23" fill="none" xmlns="http://www.w3.org/2000/svg">
<path d="M11.5 11.5C9.9875 11.5 8.69271 10.9615 7.61563 9.88438C6.53854 8.80729 6 7.5125 6 6C6 4.4875 6.53854 3.19271 7.61563 2.11563C8.69271 1.03854 9.9875 0.5 11.5 0.5C13.0125 0.5 14.3073 1.03854 15.3844 2.11563C16.4615 3.19271 17 4.4875 17 6C17 7.5125 16.4615 8.80729 15.3844 9.88438C14.3073 10.9615 13.0125 11.5 11.5 11.5ZM0.5 19.75V18.65C0.5 17.8708 0.70075 17.1549 1.10225 16.5023C1.50375 15.8496 2.03633 15.3509 2.7 15.0063C4.12083 14.2958 5.56458 13.7633 7.03125 13.4085C8.49792 13.0538 9.9875 12.8759 11.5 12.875C13.0125 12.8741 14.5021 13.0519 15.9688 13.4085C17.4354 13.7651 18.8792 14.2977 20.3 15.0063C20.9646 15.35 21.4976 15.8487 21.8991 16.5023C22.3006 17.1558 22.5009 17.8718 22.5 18.65V19.75C22.5 20.5063 22.231 21.1539 21.6929 21.6929C21.1548 22.2319 20.5072 22.5009 19.75 22.5H3.25C2.49375 22.5 1.84658 22.231 1.3085 21.6929C0.770416 21.1548 0.500917 20.5072 0.5 19.75Z" fill="black"/>
</svg>
