<svg width="42" height="42" viewBox="0 0 42 42" fill="none" xmlns="http://www.w3.org/2000/svg">
<g clip-path="url(#clip0_112_533)">
<path d="M14.6311 1.38142C10.4346 2.8372 6.81562 5.60034 4.30562 9.26495C1.79562 12.9296 0.526938 17.3025 0.685917 21.7415C0.844897 26.1804 2.42316 30.4514 5.18889 33.927C7.95462 37.4027 11.762 39.8999 16.0519 41.0517C19.5297 41.9491 23.1735 41.9885 26.67 41.1666C29.8374 40.4551 32.7658 38.9332 35.1684 36.75C37.669 34.4083 39.4841 31.4294 40.4184 28.1334C41.434 24.5492 41.6148 20.7799 40.9467 17.115H21.4167V25.2164H32.7272C32.5011 26.5085 32.0167 27.7418 31.303 28.8423C30.5892 29.9428 29.6607 30.8881 28.5731 31.6214C27.192 32.535 25.6351 33.1497 24.0023 33.4261C22.3648 33.7306 20.6852 33.7306 19.0477 33.4261C17.388 33.083 15.8179 32.3979 14.4375 31.4147C12.2199 29.8449 10.5547 27.6148 9.67968 25.0425C8.78986 22.4221 8.78986 19.5812 9.67968 16.9608C10.3026 15.124 11.3322 13.4516 12.6919 12.0684C14.2478 10.4565 16.2177 9.30431 18.3854 8.73823C20.553 8.17214 22.8347 8.21406 24.9802 8.85938C26.6561 9.37386 28.1887 10.2727 29.4558 11.4844C30.7311 10.2156 32.0042 8.9436 33.2752 7.66829C33.9314 6.98251 34.6467 6.32954 35.2931 5.62735C33.359 3.82751 31.0888 2.42701 28.6125 1.5061C24.1031 -0.131274 19.169 -0.175277 14.6311 1.38142Z" fill="white"/>
<path d="M14.6311 1.38139C19.1686 -0.176358 24.1027 -0.133513 28.6125 1.5028C31.0892 2.42996 33.3585 3.83721 35.2899 5.64374C34.6336 6.34592 33.9413 7.00217 33.2719 7.68467C31.9988 8.95561 30.7267 10.2222 29.4558 11.4844C28.1887 10.2727 26.6561 9.37383 24.9802 8.85936C22.8355 8.21178 20.5538 8.16744 18.3856 8.7312C16.2173 9.29497 14.2463 10.4451 12.6886 12.0553C11.329 13.4385 10.2993 15.1109 9.67642 16.9476L2.87439 11.6812C5.3091 6.85308 9.52466 3.15991 14.6311 1.38139Z" fill="#E33629"/>
<path d="M1.06971 16.8984C1.43531 15.0865 2.04228 13.3318 2.87439 11.6812L9.67643 16.9608C8.7866 19.5812 8.7866 22.4221 9.67643 25.0425C7.41018 26.7925 5.14283 28.5512 2.87439 30.3187C0.791296 26.1723 0.155986 21.4479 1.06971 16.8984Z" fill="#F8BD00"/>
<path d="M21.4167 17.1117H40.9467C41.6148 20.7767 41.4341 24.546 40.4185 28.1302C39.4841 31.4261 37.669 34.405 35.1685 36.7467C32.9733 35.0339 30.7683 33.3342 28.5731 31.6214C29.6615 30.8873 30.5904 29.9411 31.3042 28.8393C32.018 27.7376 32.502 26.5031 32.7272 25.2099H21.4167C21.4135 22.5127 21.4167 19.8122 21.4167 17.1117Z" fill="#587DBD"/>
<path d="M2.87109 30.3188C5.13953 28.5688 7.40687 26.81 9.67312 25.0425C10.5499 27.6157 12.2174 29.8459 14.4375 31.4147C15.8222 32.3934 17.3956 33.0728 19.0575 33.4097C20.695 33.7142 22.3747 33.7142 24.0122 33.4097C25.6449 33.1333 27.2018 32.5186 28.583 31.605C30.7781 33.3178 32.9831 35.0175 35.1783 36.7303C32.776 38.9147 29.8476 40.4377 26.6798 41.1502C23.1834 41.9721 19.5396 41.9327 16.0617 41.0353C13.3111 40.3009 10.7417 39.0062 8.51484 37.2324C6.15779 35.361 4.23267 33.0027 2.87109 30.3188Z" fill="#319F43"/>
</g>
<defs>
<clipPath id="clip0_112_533">
<rect width="42" height="42" fill="white"/>
</clipPath>
</defs>
</svg>
