<svg xmlns="http://www.w3.org/2000/svg" viewBox="0 0 48 48" width="48px" height="48px"><path fill="#FFC107" d="M43.611,20.083H42V20H24v8h11.303c-1.649,4.657-6.08,8-11.303,8c-6.627,0-12-5.373-12-12c0-6.627,5.373-12,12-12c3.059,0,5.842,1.154,8.065,3.09l5.656-5.656C34.046,6.053,29.268,4,24,4C12.955,4,4,12.955,4,24c0,11.045,8.955,20,20,20c11.045,0,19.033-8.136,19.033-19.999C43.967,21.179,43.821,20.619,43.611,20.083z"/><path fill="#FF3D00" d="M6.306,14.691l6.571,4.819C14.655,15.108,18.961,12,24,12c3.059,0,5.842,1.154,8.065,3.09l5.656-5.656C34.046,6.053,29.268,4,24,4C12.955,4,4,12.955,4,24c0,4.213,1.416,8.142,3.611,11.309L6.306,14.691z" transform="rotate(120 24 24)"/><path fill="#4CAF50" d="M24,44c5.166,0,9.86-1.977,13.409-5.192l-6.19-5.238C29.211,35.091,26.715,36,24,36c-5.202,0-9.619-3.317-11.283-7.946l-6.522,4.869C5.824,36.783,9.904,44,24,44z" transform="rotate(-120 24 24)"/><path fill="#1976D2" d="M43.611,20.083H42V20H24v8h11.303c-1.649,4.657-6.08,8-11.303,8c-6.627,0-12-5.373-12-12c0-6.627,5.373-12,12-12c3.059,0,5.842,1.154,8.065,3.09l5.656-5.656C34.046,6.053,29.268,4,24,4C12.955,4,4,12.955,4,24c0,11.045,8.955,20,20,20c11.045,0,19.033-8.136,19.033-19.999C43.967,21.179,43.821,20.619,43.611,20.083z" transform="rotate(-30 24 24)"/></svg>