<svg width="79" height="77" version="1.1" xmlns="http://www.w3.org/2000/svg" desc="Created with imagetracer.js version 1.2.6" ><path fill="rgb(237,106,58)" stroke="rgb(237,106,58)" stroke-width="1" opacity="0.35294117647058826" d="M 53.5 18 L 54.5 20 L 53.5 18 Z " /><path fill="rgb(237,106,58)" stroke="rgb(237,106,58)" stroke-width="1" opacity="0.35294117647058826" d="M 21.5 19 L 16.5 25 L 21.5 19 Z " /><path fill="rgb(237,106,58)" stroke="rgb(237,106,58)" stroke-width="1" opacity="0.35294117647058826" d="M 15.5 26 L 14.5 28 L 15.5 26 Z " /><path fill="rgb(237,106,58)" stroke="rgb(237,106,58)" stroke-width="1" opacity="0.35294117647058826" d="M 50.5 31 L 52.5 34 L 50.5 31 Z " /><path fill="rgb(237,106,58)" stroke="rgb(237,106,58)" stroke-width="1" opacity="0.35294117647058826" d="M 11.5 35 L 12 37.5 L 11 37.5 L 11.5 35 Z " /><path fill="rgb(237,106,58)" stroke="rgb(237,106,58)" stroke-width="1" opacity="0.35294117647058826" d="M 65.5 38 L 66 42.5 L 65 42.5 L 65.5 38 Z " /><path fill="rgb(237,106,58)" stroke="rgb(237,106,58)" stroke-width="1" opacity="0.35294117647058826" d="M 25.5 39 L 24.5 41 L 25.5 39 Z " /><path fill="rgb(237,106,58)" stroke="rgb(237,106,58)" stroke-width="1" opacity="0.35294117647058826" d="M 11.5 44 L 12 46.5 L 11 46.5 L 11.5 44 Z " /><path fill="rgb(237,106,58)" stroke="rgb(237,106,58)" stroke-width="1" opacity="0.35294117647058826" d="M 14.5 54 L 15.5 56 L 14.5 54 Z " /><path fill="rgb(237,106,58)" stroke="rgb(237,106,58)" stroke-width="1" opacity="0.35294117647058826" d="M 60.5 56 L 54.5 63 L 60.5 56 Z " /><path fill="rgb(237,106,58)" stroke="rgb(237,106,58)" stroke-width="1" opacity="0.35294117647058826" d="M 17.5 58 L 20.5 62 L 17.5 58 Z " /><path fill="rgb(0,0,0)" stroke="rgb(0,0,0)" stroke-width="1" opacity="0" d="M 0 0 L 79 0 L 79 77 L 0 77 L 0 0 Z M 32 14 L 22 19 Q 14 25 11 36 L 11 47 L 17 59 Q 23 65 34 68 L 44 68 L 55 63 L 61 57 L 66 43 Q 66 32 61 26 Q 54 12 32 14 Z " /><path fill="rgb(0,0,0)" stroke="rgb(0,0,0)" stroke-width="1" opacity="0" d="M 49.5 31 L 53 34.5 L 35.5 52 L 33.5 52 L 24 42.5 L 26.5 39 L 34.5 46 L 49.5 31 Z " /><path fill="rgb(236,106,59)" stroke="rgb(236,106,59)" stroke-width="1" opacity="0.9333333333333333" d="M 33.5 14 L 44 14.5 L 33.5 15 L 33.5 14 Z " /><path fill="rgb(236,106,59)" stroke="rgb(236,106,59)" stroke-width="1" opacity="0.9333333333333333" d="M 48.5 16 L 51 17.5 L 49.5 17 L 48.5 16 Z " /><path fill="rgb(236,106,59)" stroke="rgb(236,106,59)" stroke-width="1" opacity="0.9333333333333333" d="M 23.5 18 L 22.5 20 L 23.5 18 Z " /><path fill="rgb(236,106,59)" stroke="rgb(236,106,59)" stroke-width="1" opacity="0.9333333333333333" d="M 55.5 20 L 59.5 25 L 55.5 20 Z " /><path fill="rgb(236,106,59)" stroke="rgb(236,106,59)" stroke-width="1" opacity="0.9333333333333333" d="M 17.5 24 L 16.5 26 L 17.5 24 Z " /><path fill="rgb(236,106,59)" stroke="rgb(236,106,59)" stroke-width="1" opacity="0.9333333333333333" d="M 60.5 26 L 63 30.5 L 62 30.5 L 60.5 26 Z " /><path fill="rgb(236,106,59)" stroke="rgb(236,106,59)" stroke-width="1" opacity="0.9333333333333333" d="M 49.5 30 L 36.5 44 L 49.5 30 Z " /><path fill="rgb(236,106,59)" stroke="rgb(236,106,59)" stroke-width="1" opacity="0.9333333333333333" d="M 64.5 35 L 65 39.5 L 64 39.5 L 64.5 35 Z " /><path fill="rgb(236,106,59)" stroke="rgb(236,106,59)" stroke-width="1" opacity="0.9333333333333333" d="M 11.5 38 L 12 43.5 L 11 43.5 L 11.5 38 Z " /><path fill="rgb(236,106,59)" stroke="rgb(236,106,59)" stroke-width="1" opacity="0.9333333333333333" d="M 26.5 38 L 34 44.5 L 27.5 39 L 26.5 38 Z " /><path fill="rgb(236,106,59)" stroke="rgb(236,106,59)" stroke-width="1" opacity="0.9333333333333333" d="M 64.5 41 L 65 46.5 L 64 46.5 L 64.5 41 Z " /><path fill="rgb(236,106,59)" stroke="rgb(236,106,59)" stroke-width="1" opacity="0.9333333333333333" d="M 12.5 46 L 13 48.5 L 12 48.5 L 12.5 46 Z " /><path fill="rgb(236,106,59)" stroke="rgb(236,106,59)" stroke-width="1" opacity="0.9333333333333333" d="M 13.5 50 L 16 54.5 L 14 53.5 L 13.5 50 Z " /><path fill="rgb(236,106,59)" stroke="rgb(236,106,59)" stroke-width="1" opacity="0.9333333333333333" d="M 60.5 55 L 59.5 57 L 60.5 55 Z " /><path fill="rgb(236,106,59)" stroke="rgb(236,106,59)" stroke-width="1" opacity="0.9333333333333333" d="M 16.5 56 L 22.5 63 L 16.5 56 Z " /><path fill="rgb(236,106,59)" stroke="rgb(236,106,59)" stroke-width="1" opacity="0.9333333333333333" d="M 53.5 62 L 52.5 64 L 53.5 62 Z " /><path fill="rgb(236,106,59)" stroke="rgb(236,106,59)" stroke-width="1" opacity="0.9333333333333333" d="M 24.5 63 L 27 64.5 L 25.5 65 L 24.5 63 Z " /><path fill="rgb(236,106,59)" stroke="rgb(236,106,59)" stroke-width="1" opacity="0.9333333333333333" d="M 35.5 67 L 42 67.5 L 35.5 68 L 35.5 67 Z " /><path fill="rgb(241,90,36)" stroke="rgb(241,90,36)" stroke-width="1" opacity="1" d="M 31.5 15 Q 53 13 60 25.5 L 63 31.5 L 65 40.5 L 63 50.5 L 54.5 62 L 43.5 67 L 32.5 67 Q 21.6 63.9 16 55.5 L 12 45.5 L 12 35.5 Q 14.4 25.4 21.5 20 L 31.5 15 Z M 50 30 L 36 44 L 36 45 L 28 38 L 23 42 L 35 53 L 53 35 L 50 30 Z " /></svg>