<svg width="148" height="60" viewBox="0 0 148 60" fill="none" xmlns="http://www.w3.org/2000/svg">
<g filter="url(#filter0_d_10_14)">
<mask id="path-1-inside-1_10_14" fill="white">
<path d="M133.004 10.833C135.765 10.833 138.004 13.0716 138.004 15.833L138.004 34.833C138.004 37.5945 135.765 39.833 133.004 39.833L82.3435 39.8331L74.0037 49.8331L65.6638 39.8331L15.0037 39.8331C12.2422 39.8331 10.0037 37.5945 10.0037 34.8331L10.0037 15.8331C10.0037 13.0716 12.2422 10.8331 15.0037 10.8331L133.004 10.833Z"/>
</mask>
<path d="M133.004 10.833C135.765 10.833 138.004 13.0716 138.004 15.833L138.004 34.833C138.004 37.5945 135.765 39.833 133.004 39.833L82.3435 39.8331L74.0037 49.8331L65.6638 39.8331L15.0037 39.8331C12.2422 39.8331 10.0037 37.5945 10.0037 34.8331L10.0037 15.8331C10.0037 13.0716 12.2422 10.8331 15.0037 10.8331L133.004 10.833Z" fill="white"/>
<path d="M133.004 10.833L133.004 9.83305L133.004 10.833ZM138.004 15.833L139.004 15.833L138.004 15.833ZM138.004 34.833L137.004 34.833L138.004 34.833ZM82.3435 39.8331L82.3435 38.8331L81.8754 38.8331L81.5755 39.1926L82.3435 39.8331ZM74.0037 49.8331L73.2357 50.4735L74.0037 51.3944L74.7716 50.4735L74.0037 49.8331ZM65.6638 39.8331L66.4318 39.1926L66.132 38.8331L65.6638 38.8331L65.6638 39.8331ZM10.0037 34.8331L9.00367 34.8331L10.0037 34.8331ZM10.0037 15.8331L9.00366 15.8331L10.0037 15.8331ZM15.0037 10.8331L15.0037 11.8331L15.0037 10.8331ZM133.004 10.833L133.004 11.833C135.213 11.833 137.004 13.6239 137.004 15.833L138.004 15.833L139.004 15.833C139.004 12.5193 136.317 9.83305 133.004 9.83305L133.004 10.833ZM138.004 15.833L137.004 15.833L137.004 34.833L138.004 34.833L139.004 34.833L139.004 15.833L138.004 15.833ZM138.004 34.833L137.004 34.833C137.004 37.0422 135.213 38.833 133.004 38.833L133.004 39.833L133.004 40.833C136.317 40.833 139.004 38.1468 139.004 34.833L138.004 34.833ZM133.004 39.833L133.004 38.833L82.3435 38.8331L82.3435 39.8331L82.3435 40.8331L133.004 40.833L133.004 39.833ZM82.3435 39.8331L81.5755 39.1926L73.2357 49.1926L74.0037 49.8331L74.7716 50.4735L83.1115 40.4735L82.3435 39.8331ZM74.0037 49.8331L74.7716 49.1926L66.4318 39.1926L65.6638 39.8331L64.8958 40.4735L73.2357 50.4735L74.0037 49.8331ZM65.6638 39.8331L65.6638 38.8331L15.0037 38.8331L15.0037 39.8331L15.0037 40.8331L65.6638 40.8331L65.6638 39.8331ZM15.0037 39.8331L15.0037 38.8331C12.7945 38.8331 11.0037 37.0422 11.0037 34.8331L10.0037 34.8331L9.00367 34.8331C9.00367 38.1468 11.69 40.8331 15.0037 40.8331L15.0037 39.8331ZM10.0037 34.8331L11.0037 34.8331L11.0037 15.8331L10.0037 15.8331L9.00366 15.8331L9.00367 34.8331L10.0037 34.8331ZM10.0037 15.8331L11.0037 15.8331C11.0037 13.6239 12.7945 11.8331 15.0037 11.8331L15.0037 10.8331L15.0037 9.83307C11.69 9.83307 9.00366 12.5194 9.00366 15.8331L10.0037 15.8331ZM15.0037 10.8331L15.0037 11.8331L133.004 11.833L133.004 10.833L133.004 9.83305L15.0037 9.83307L15.0037 10.8331Z" fill="#333333" mask="url(#path-1-inside-1_10_14)"/>
</g>
<defs>
<filter id="filter0_d_10_14" x="0.00366211" y="0.833069" width="148" height="59" filterUnits="userSpaceOnUse" color-interpolation-filters="sRGB">
<feFlood flood-opacity="0" result="BackgroundImageFix"/>
<feColorMatrix in="SourceAlpha" type="matrix" values="0 0 0 0 0 0 0 0 0 0 0 0 0 0 0 0 0 0 127 0" result="hardAlpha"/>
<feOffset/>
<feGaussianBlur stdDeviation="5"/>
<feComposite in2="hardAlpha" operator="out"/>
<feColorMatrix type="matrix" values="0 0 0 0 0 0 0 0 0 0 0 0 0 0 0 0 0 0 0.3 0"/>
<feBlend mode="normal" in2="BackgroundImageFix" result="effect1_dropShadow_10_14"/>
<feBlend mode="normal" in="SourceGraphic" in2="effect1_dropShadow_10_14" result="shape"/>
</filter>
</defs>
</svg>
