<svg width="222" height="87" viewBox="0 0 222 87" fill="none" xmlns="http://www.w3.org/2000/svg">
<g filter="url(#filter0_d_187_7)">
<mask id="path-1-inside-1_187_7" fill="white">
<path d="M207 10C209.761 10 212 12.2386 212 15V62C212 64.7614 209.761 67 207 67L119.34 67L111 77L102.66 67L15 67C12.2386 67 10 64.7614 10 62L10 15C10 12.2386 12.2386 10 15 10L207 10Z"/>
</mask>
<path d="M207 10C209.761 10 212 12.2386 212 15V62C212 64.7614 209.761 67 207 67L119.34 67L111 77L102.66 67L15 67C12.2386 67 10 64.7614 10 62L10 15C10 12.2386 12.2386 10 15 10L207 10Z" fill="white"/>
<path d="M207 10L207 9H207V10ZM212 15L213 15L212 15ZM212 62L213 62V62H212ZM207 67L207 68L207 67ZM119.34 67V66H118.872L118.572 66.3595L119.34 67ZM111 77L110.232 77.6405L111 78.5613L111.768 77.6405L111 77ZM102.66 67L103.428 66.3595L103.128 66H102.66V67ZM15 67L15 68H15V67ZM10 62L9 62L10 62ZM10 15L9 15V15H10ZM15 10L15 9L15 10ZM207 10L207 11C209.209 11 211 12.7909 211 15L212 15L213 15C213 11.6863 210.314 9 207 9L207 10ZM212 15H211V62H212H213V15H212ZM212 62L211 62C211 64.2091 209.209 66 207 66L207 67L207 68C210.314 68 213 65.3137 213 62L212 62ZM207 67V66L119.34 66V67V68L207 68V67ZM119.34 67L118.572 66.3595L110.232 76.3595L111 77L111.768 77.6405L120.108 67.6405L119.34 67ZM111 77L111.768 76.3595L103.428 66.3595L102.66 67L101.892 67.6405L110.232 77.6405L111 77ZM102.66 67V66L15 66V67V68L102.66 68V67ZM15 67L15 66C12.7909 66 11 64.2091 11 62L10 62L9 62C9 65.3137 11.6863 68 15 68L15 67ZM10 62H11L11 15H10H9L9 62H10ZM10 15L11 15C11 12.7909 12.7909 11 15 11L15 10L15 9C11.6863 9 9 11.6863 9 15L10 15ZM15 10V11L207 11V10V9L15 9V10Z" fill="#333333" mask="url(#path-1-inside-1_187_7)"/>
</g>
<defs>
<filter id="filter0_d_187_7" x="0" y="0" width="222" height="87" filterUnits="userSpaceOnUse" color-interpolation-filters="sRGB">
<feFlood flood-opacity="0" result="BackgroundImageFix"/>
<feColorMatrix in="SourceAlpha" type="matrix" values="0 0 0 0 0 0 0 0 0 0 0 0 0 0 0 0 0 0 127 0" result="hardAlpha"/>
<feOffset/>
<feGaussianBlur stdDeviation="5"/>
<feComposite in2="hardAlpha" operator="out"/>
<feColorMatrix type="matrix" values="0 0 0 0 0 0 0 0 0 0 0 0 0 0 0 0 0 0 0.3 0"/>
<feBlend mode="normal" in2="BackgroundImageFix" result="effect1_dropShadow_187_7"/>
<feBlend mode="normal" in="SourceGraphic" in2="effect1_dropShadow_187_7" result="shape"/>
</filter>
</defs>
</svg>
