<svg width="158" height="83" viewBox="0 0 158 83" fill="none" xmlns="http://www.w3.org/2000/svg">
<g filter="url(#filter0_d_187_12)">
<mask id="path-1-inside-1_187_12" fill="white">
<path d="M143 10C145.761 10 148 12.2386 148 15V58C148 60.7614 145.761 63 143 63L87.3398 63L79 73L70.6602 63L15 63C12.2386 63 10 60.7614 10 58L10 15C10 12.2386 12.2386 10 15 10L143 10Z"/>
</mask>
<path d="M143 10C145.761 10 148 12.2386 148 15V58C148 60.7614 145.761 63 143 63L87.3398 63L79 73L70.6602 63L15 63C12.2386 63 10 60.7614 10 58L10 15C10 12.2386 12.2386 10 15 10L143 10Z" fill="white"/>
<path d="M148 15L149 15V15L148 15ZM87.3398 63V62H86.8717L86.5719 62.3595L87.3398 63ZM79 73L78.232 73.6405L79 74.5613L79.768 73.6405L79 73ZM70.6602 63L71.4281 62.3595L71.1283 62H70.6602V63ZM10 58L9 58V58L10 58ZM143 10V11C145.209 11 147 12.7909 147 15L148 15L149 15C149 11.6863 146.314 9 143 9V10ZM148 15H147V58H148H149V15H148ZM148 58H147C147 60.2091 145.209 62 143 62V63V64C146.314 64 149 61.3137 149 58H148ZM143 63V62L87.3398 62V63V64L143 64V63ZM87.3398 63L86.5719 62.3595L78.232 72.3595L79 73L79.768 73.6405L88.1078 63.6405L87.3398 63ZM79 73L79.768 72.3595L71.4281 62.3595L70.6602 63L69.8922 63.6405L78.232 73.6405L79 73ZM70.6602 63V62L15 62V63V64H70.6602V63ZM15 63V62C12.7909 62 11 60.2091 11 58L10 58L9 58C9 61.3137 11.6863 64 15 64V63ZM10 58H11L11 15H10H9L9 58H10ZM10 15H11C11 12.7909 12.7909 11 15 11V10V9C11.6863 9 9 11.6863 9 15H10ZM15 10V11L143 11V10V9L15 9V10Z" fill="#333333" mask="url(#path-1-inside-1_187_12)"/>
</g>
<defs>
<filter id="filter0_d_187_12" x="0" y="0" width="158" height="83" filterUnits="userSpaceOnUse" color-interpolation-filters="sRGB">
<feFlood flood-opacity="0" result="BackgroundImageFix"/>
<feColorMatrix in="SourceAlpha" type="matrix" values="0 0 0 0 0 0 0 0 0 0 0 0 0 0 0 0 0 0 127 0" result="hardAlpha"/>
<feOffset/>
<feGaussianBlur stdDeviation="5"/>
<feComposite in2="hardAlpha" operator="out"/>
<feColorMatrix type="matrix" values="0 0 0 0 0 0 0 0 0 0 0 0 0 0 0 0 0 0 0.3 0"/>
<feBlend mode="normal" in2="BackgroundImageFix" result="effect1_dropShadow_187_12"/>
<feBlend mode="normal" in="SourceGraphic" in2="effect1_dropShadow_187_12" result="shape"/>
</filter>
</defs>
</svg>
