<svg width="35" height="35" viewBox="0 0 35 35" fill="none" xmlns="http://www.w3.org/2000/svg">
<path d="M17.5 17.4999C15.8958 17.4999 14.5226 16.9287 13.3802 15.7864C12.2378 14.644 11.6667 13.2708 11.6667 11.6666C11.6667 10.0624 12.2378 8.68916 13.3802 7.54679C14.5226 6.40443 15.8958 5.83325 17.5 5.83325C19.1042 5.83325 20.4774 6.40443 21.6198 7.54679C22.7622 8.68916 23.3333 10.0624 23.3333 11.6666C23.3333 13.2708 22.7622 14.644 21.6198 15.7864C20.4774 16.9287 19.1042 17.4999 17.5 17.4999ZM5.83333 26.2499V25.0833C5.83333 24.2569 6.04625 23.4976 6.47208 22.8053C6.89792 22.1131 7.46278 21.5842 8.16667 21.2187C9.67361 20.4652 11.2049 19.9003 12.7604 19.5241C14.316 19.1478 15.8958 18.9592 17.5 18.9583C19.1042 18.9573 20.684 19.1459 22.2396 19.5241C23.7951 19.9023 25.3264 20.4671 26.8333 21.2187C27.5382 21.5833 28.1035 22.1121 28.5294 22.8053C28.9552 23.4985 29.1676 24.2578 29.1667 25.0833V26.2499C29.1667 27.052 28.8813 27.7389 28.3106 28.3105C27.7399 28.8822 27.0531 29.1676 26.25 29.1666H8.75C7.94792 29.1666 7.26153 28.8812 6.69083 28.3105C6.12014 27.7399 5.8343 27.053 5.83333 26.2499Z" fill="black"/>
</svg>
