<svg width="40" height="40" viewBox="0 0 40 40" fill="none" xmlns="http://www.w3.org/2000/svg">
<path d="M6.66667 31.6666V16.6666C6.66667 16.1388 6.785 15.6388 7.02167 15.1666C7.25833 14.6944 7.58445 14.3055 8 13.9999L18 6.49992C18.5833 6.05547 19.25 5.83325 20 5.83325C20.75 5.83325 21.4167 6.05547 22 6.49992L32 13.9999C32.4167 14.3055 32.7433 14.6944 32.98 15.1666C33.2167 15.6388 33.3344 16.1388 33.3333 16.6666V31.6666C33.3333 32.5833 33.0067 33.3683 32.3533 34.0216C31.7 34.6749 30.9156 35.001 30 34.9999H25C24.5278 34.9999 24.1322 34.8399 23.8133 34.5199C23.4944 34.1999 23.3344 33.8044 23.3333 33.3333V24.9999C23.3333 24.5277 23.1733 24.1321 22.8533 23.8133C22.5333 23.4944 22.1378 23.3344 21.6667 23.3333H18.3333C17.8611 23.3333 17.4656 23.4933 17.1467 23.8133C16.8278 24.1333 16.6678 24.5288 16.6667 24.9999V33.3333C16.6667 33.8055 16.5067 34.2016 16.1867 34.5216C15.8667 34.8416 15.4711 35.001 15 34.9999H10C9.08333 34.9999 8.29889 34.6738 7.64667 34.0216C6.99445 33.3694 6.66778 32.5844 6.66667 31.6666Z" fill="black"/>
</svg>
