<svg width="26" height="26" viewBox="0 0 26 26" fill="none" xmlns="http://www.w3.org/2000/svg">
<path d="M3.84588 13L11.8084 20.9625C12.0792 21.2333 12.2103 21.5493 12.2016 21.9104C12.193 22.2715 12.0529 22.5875 11.7813 22.8583C11.5097 23.1292 11.1938 23.2646 10.8334 23.2646C10.473 23.2646 10.157 23.1292 9.88547 22.8583L1.5438 14.5438C1.32713 14.3271 1.16463 14.0833 1.0563 13.8125C0.947966 13.5417 0.893799 13.2708 0.893799 13C0.893799 12.7292 0.947966 12.4583 1.0563 12.1875C1.16463 11.9167 1.32713 11.6729 1.5438 11.4563L9.88547 3.11458C10.1563 2.84375 10.477 2.71267 10.8475 2.72134C11.218 2.73 11.5383 2.87011 11.8084 3.14167C12.0785 3.41322 12.2139 3.7292 12.2146 4.08958C12.2154 4.44997 12.0799 4.76595 11.8084 5.0375L3.84588 13Z" fill="black"/>
</svg>
