<svg width="25" height="25" viewBox="0 0 25 25" fill="none" xmlns="http://www.w3.org/2000/svg">
<path fill-rule="evenodd" clip-rule="evenodd" d="M17.9687 10.9376C17.9687 11.8609 17.7869 12.7752 17.4335 13.6283C17.0802 14.4814 16.5622 15.2565 15.9093 15.9094C15.2564 16.5623 14.4813 17.0802 13.6282 17.4336C12.7752 17.7869 11.8608 17.9688 10.9375 17.9688C10.0141 17.9688 9.09982 17.7869 8.24675 17.4336C7.39368 17.0802 6.61856 16.5623 5.96565 15.9094C5.31274 15.2565 4.79482 14.4814 4.44146 13.6283C4.08811 12.7752 3.90624 11.8609 3.90624 10.9376C3.90624 9.07275 4.64703 7.28432 5.96565 5.96571C7.28426 4.64709 9.07269 3.9063 10.9375 3.9063C12.8023 3.9063 14.5907 4.64709 15.9093 5.96571C17.228 7.28432 17.9687 9.07275 17.9687 10.9376ZM16.6875 18.3438C14.8037 19.8063 12.4334 20.4958 10.0591 20.2721C7.68473 20.0485 5.48491 18.9283 3.90741 17.1397C2.32992 15.3512 1.49335 13.0286 1.56802 10.645C1.64268 8.26131 2.62296 5.99569 4.30929 4.30935C5.99563 2.62302 8.26125 1.64274 10.6449 1.56808C13.0286 1.49341 15.3511 2.32998 17.1397 3.90747C18.9282 5.48497 20.0484 7.68479 20.2721 10.0591C20.4958 12.4334 19.8062 14.8038 18.3437 16.6876L22.7031 21.0469C22.8183 21.1542 22.9106 21.2836 22.9746 21.4273C23.0387 21.5711 23.0731 21.7263 23.0759 21.8836C23.0787 22.041 23.0497 22.1973 22.9908 22.3432C22.9319 22.4891 22.8441 22.6216 22.7329 22.7329C22.6216 22.8442 22.489 22.9319 22.3431 22.9909C22.1972 23.0498 22.0409 23.0788 21.8836 23.076C21.7262 23.0732 21.571 23.0388 21.4273 22.9747C21.2835 22.9107 21.1542 22.8183 21.0469 22.7032L16.6875 18.3438Z" fill="black"/>
</svg>
