<svg width="40" height="40" viewBox="0 0 40 40" fill="none" xmlns="http://www.w3.org/2000/svg">
<path d="M6.66667 31.6667V16.6667C6.66667 16.1389 6.785 15.6389 7.02167 15.1667C7.25833 14.6945 7.58445 14.3056 8 14L18 6.50004C18.5833 6.0556 19.25 5.83337 20 5.83337C20.75 5.83337 21.4167 6.0556 22 6.50004L32 14C32.4167 14.3056 32.7433 14.6945 32.98 15.1667C33.2167 15.6389 33.3344 16.1389 33.3333 16.6667V31.6667C33.3333 32.5834 33.0067 33.3684 32.3533 34.0217C31.7 34.675 30.9156 35.0012 30 35H25C24.5278 35 24.1322 34.84 23.8133 34.52C23.4944 34.2 23.3344 33.8045 23.3333 33.3334V25C23.3333 24.5278 23.1733 24.1323 22.8533 23.8134C22.5333 23.4945 22.1378 23.3345 21.6667 23.3334H18.3333C17.8611 23.3334 17.4656 23.4934 17.1467 23.8134C16.8278 24.1334 16.6678 24.5289 16.6667 25V33.3334C16.6667 33.8056 16.5067 34.2017 16.1867 34.5217C15.8667 34.8417 15.4711 35.0012 15 35H10C9.08333 35 8.29889 34.6739 7.64667 34.0217C6.99445 33.3695 6.66778 32.5845 6.66667 31.6667Z" fill="#F15A24"/>
</svg>
