<svg width="40" height="40" viewBox="0 0 40 40" fill="none" xmlns="http://www.w3.org/2000/svg">
<g clip-path="url(#clip0_16_278)">
<path d="M21.2983 0.0416717C18.2571 -0.156614 15.2115 0.354612 12.4017 1.53501C9.58723 2.71583 7.08626 4.5355 5.09667 6.85C3.10013 9.16888 1.66574 11.9173 0.905172 14.8812C0.144604 17.8451 0.0783841 20.9446 0.711669 23.9383C1.34005 26.9312 2.652 29.7382 4.545 32.14C6.43345 34.5379 8.8524 36.4651 11.6117 37.77C14.3663 39.0741 17.3866 39.7189 20.4336 39.6536C23.4806 39.5882 26.4705 38.8144 29.1667 37.3933C29.2531 37.3492 29.3497 37.3288 29.4465 37.334C29.5434 37.3393 29.6372 37.3701 29.7183 37.4233C32.2787 39.138 35.2988 40.0358 38.38 39.9983C38.4528 39.9988 38.5249 39.9848 38.5923 39.9571C38.6596 39.9295 38.7208 39.8887 38.7723 39.8373C38.8237 39.7858 38.8645 39.7246 38.8921 39.6573C38.9198 39.5899 38.9338 39.5178 38.9333 39.445V32.715C38.9342 32.5835 38.8884 32.456 38.8042 32.3551C38.72 32.2541 38.6028 32.1862 38.4733 32.1633C37.8394 32.0623 37.2203 31.8838 36.63 31.6317C36.52 31.5823 36.4292 31.4982 36.3717 31.3921C36.3141 31.2861 36.2931 31.1642 36.3117 31.045C36.3213 30.9655 36.3499 30.8895 36.395 30.8233C38.3201 27.9257 39.452 24.574 39.6778 21.1025C39.9035 17.631 39.2153 14.1609 37.6817 11.0383C36.1521 7.9205 33.8286 5.26026 30.945 3.325C28.0682 1.39404 24.7323 0.257357 21.275 0.030005L21.2983 0.0416717ZM8.07167 19.83C8.06988 17.4559 8.76848 15.134 10.08 13.155C11.3901 11.1826 13.2544 9.64179 15.4383 8.72667C17.6212 7.81357 20.027 7.57292 22.3475 8.03553C24.6679 8.49814 26.7975 9.64296 28.4633 11.3233C30.1349 13.0085 31.2723 15.1492 31.7333 17.4775C32.1942 19.8058 31.9583 22.2184 31.055 24.4133C30.1515 26.6058 28.6186 28.4814 26.65 29.8033C24.3532 31.3427 21.5927 32.0355 18.8412 31.7631C16.0897 31.4906 13.5186 30.2699 11.5683 28.31C9.32698 26.0558 8.06717 23.0072 8.06334 19.8283L8.07167 19.83Z" fill="#F15A24"/>
</g>
<defs>
<clipPath id="clip0_16_278">
<rect width="40" height="40" fill="white"/>
</clipPath>
</defs>
</svg>
