<svg width="40" height="40" viewBox="0 0 40 40" fill="none" xmlns="http://www.w3.org/2000/svg">
<path d="M18.3333 3.33325L23.3333 3.33492V13.3333C23.3334 13.7415 23.4833 14.1355 23.7545 14.4405C24.0258 14.7456 24.3996 14.9405 24.805 14.9883L25 14.9999H35V24.9999C35 26.326 34.4732 27.5978 33.5355 28.5355C32.5979 29.4731 31.3261 29.9999 30 29.9999H28.3333V31.6666C28.3333 32.9927 27.8066 34.2644 26.8689 35.2021C25.9312 36.1398 24.6594 36.6666 23.3333 36.6666H11.6667C10.3406 36.6666 9.06882 36.1398 8.13114 35.2021C7.19346 34.2644 6.66667 32.9927 6.66667 31.6666V14.9999C6.66667 13.6738 7.19346 12.4021 8.13114 11.4644C9.06882 10.5267 10.3406 9.99992 11.6667 9.99992H13.3333V8.33325C13.3333 7.00717 13.8601 5.7354 14.7978 4.79772C15.7355 3.86004 17.0073 3.33325 18.3333 3.33325ZM13.3333 13.3333H11.6667C11.2246 13.3333 10.8007 13.5088 10.4882 13.8214C10.1756 14.134 10 14.5579 10 14.9999V31.6666C10 32.1086 10.1756 32.5325 10.4882 32.8451C10.8007 33.1577 11.2246 33.3333 11.6667 33.3333H23.3333C23.7754 33.3333 24.1993 33.1577 24.5119 32.8451C24.8244 32.5325 25 32.1086 25 31.6666V29.9999H18.3333C17.0073 29.9999 15.7355 29.4731 14.7978 28.5355C13.8601 27.5978 13.3333 26.326 13.3333 24.9999V13.3333ZM34.025 11.6666H26.6667V4.30825L34.025 11.6666Z" fill="#F15A24"/>
</svg>
