<svg width="41" height="27" viewBox="0 0 41 27" fill="none" xmlns="http://www.w3.org/2000/svg">
<path d="M2.83334 26.75C2.20765 26.75 1.68354 26.538 1.26101 26.114C0.83848 25.69 0.62648 25.1659 0.625008 24.5417C0.623535 23.9174 0.835536 23.3933 1.26101 22.9693C1.68648 22.5453 2.21059 22.3333 2.83334 22.3333H38.1667C38.7924 22.3333 39.3172 22.5453 39.7412 22.9693C40.1652 23.3933 40.3765 23.9174 40.375 24.5417C40.3735 25.1659 40.1615 25.6907 39.739 26.1162C39.3165 26.5417 38.7924 26.7529 38.1667 26.75H2.83334ZM2.83334 15.7083C2.20765 15.7083 1.68354 15.4963 1.26101 15.0723C0.83848 14.6483 0.62648 14.1242 0.625008 13.5C0.623535 12.8758 0.835536 12.3517 1.26101 11.9277C1.68648 11.5037 2.21059 11.2917 2.83334 11.2917H38.1667C38.7924 11.2917 39.3172 11.5037 39.7412 11.9277C40.1652 12.3517 40.3765 12.8758 40.375 13.5C40.3735 14.1242 40.1615 14.6491 39.739 15.0745C39.3165 15.5 38.7924 15.7113 38.1667 15.7083H2.83334ZM2.83334 4.66667C2.20765 4.66667 1.68354 4.45467 1.26101 4.03067C0.83848 3.60667 0.62648 3.08256 0.625008 2.45833C0.623535 1.83411 0.835536 1.31 1.26101 0.886C1.68648 0.462 2.21059 0.25 2.83334 0.25H38.1667C38.7924 0.25 39.3172 0.462 39.7412 0.886C40.1652 1.31 40.3765 1.83411 40.375 2.45833C40.3735 3.08256 40.1615 3.6074 39.739 4.03287C39.3165 4.45835 38.7924 4.66961 38.1667 4.66667H2.83334Z" fill="#F15A24"/>
</svg>
