<svg width="40" height="40" viewBox="0 0 40 40" fill="none" xmlns="http://www.w3.org/2000/svg">
<path d="M18.3333 3.33337L23.3333 3.33504V13.3334C23.3334 13.7416 23.4833 14.1356 23.7545 14.4407C24.0258 14.7457 24.3996 14.9406 24.805 14.9884L25 15H35V25C35 26.3261 34.4732 27.5979 33.5355 28.5356C32.5979 29.4733 31.3261 30 30 30H28.3333V31.6667C28.3333 32.9928 27.8066 34.2646 26.8689 35.2022C25.9312 36.1399 24.6594 36.6667 23.3333 36.6667H11.6667C10.3406 36.6667 9.06882 36.1399 8.13114 35.2022C7.19346 34.2646 6.66667 32.9928 6.66667 31.6667V15C6.66667 13.674 7.19346 12.4022 8.13114 11.4645C9.06882 10.5268 10.3406 10 11.6667 10H13.3333V8.33337C13.3333 7.00729 13.8601 5.73552 14.7978 4.79784C15.7355 3.86016 17.0073 3.33337 18.3333 3.33337ZM13.3333 13.3334H11.6667C11.2246 13.3334 10.8007 13.509 10.4882 13.8215C10.1756 14.1341 10 14.558 10 15V31.6667C10 32.1087 10.1756 32.5327 10.4882 32.8452C10.8007 33.1578 11.2246 33.3334 11.6667 33.3334H23.3333C23.7754 33.3334 24.1993 33.1578 24.5119 32.8452C24.8244 32.5327 25 32.1087 25 31.6667V30H18.3333C17.0073 30 15.7355 29.4733 14.7978 28.5356C13.8601 27.5979 13.3333 26.3261 13.3333 25V13.3334ZM34.025 11.6667H26.6667V4.30837L34.025 11.6667Z" fill="black"/>
</svg>
